<?xml version="1.0" encoding="utf-8"?>
<!-- Generator: Adobe Illustrator 26.5.0, SVG Export Plug-In . SVG Version: 6.00 Build 0)  -->
<svg version="1.1" id="Layer_1" xmlns="http://www.w3.org/2000/svg" xmlns:xlink="http://www.w3.org/1999/xlink" x="0px" y="0px"
	 viewBox="0 0 249 249" style="enable-background:new 0 0 249 249;" xml:space="preserve">
<g>
	<g>
		<path d="M130,23.8c-1.8-0.1-3.3-0.5-4.6-1.3c-1.3-0.8-2.4-1.9-3.1-3.2c-0.7-1.4-1-2.9-1-4.6c0.1-1.7,0.5-3.2,1.4-4.5
			c0.8-1.3,2-2.3,3.4-3c1.4-0.7,3-1,4.7-0.9c1.6,0.1,2.9,0.4,4.1,1.1c1.2,0.7,2.1,1.6,2.7,2.9l-2.4,1.4c-0.5-0.9-1.2-1.5-2-2
			c-0.8-0.4-1.7-0.7-2.6-0.7c-1.1,0-2.1,0.2-3,0.6c-0.9,0.5-1.6,1.1-2.2,2c-0.6,0.9-0.9,1.9-0.9,3.2c-0.1,1.2,0.2,2.3,0.6,3.2
			c0.5,0.9,1.2,1.7,2,2.2c0.9,0.5,1.9,0.8,3,0.9c0.9,0,1.8-0.1,2.6-0.5c0.8-0.4,1.5-1,2.1-1.8l2.3,1.6c-0.7,1.2-1.7,2-3,2.6
			C133,23.6,131.6,23.8,130,23.8z"/>
		<path d="M147.2,26.2c-1.7-0.4-3.1-1.1-4.2-2.1s-2-2.3-2.4-3.8c-0.5-1.5-0.5-3-0.1-4.7c0.4-1.7,1.1-3.1,2.2-4.2
			c1.1-1.1,2.3-1.9,3.8-2.3c1.5-0.4,3.1-0.5,4.7-0.1c1.7,0.4,3.1,1.1,4.2,2.1c1.2,1,2,2.3,2.4,3.7c0.5,1.5,0.5,3,0.1,4.7
			c-0.4,1.7-1.1,3.1-2.1,4.2s-2.3,1.9-3.8,2.3C150.4,26.5,148.8,26.6,147.2,26.2z M147.8,23.5c1.1,0.2,2.1,0.2,3.1-0.1
			s1.8-0.8,2.5-1.6c0.7-0.8,1.2-1.8,1.4-3c0.3-1.2,0.3-2.3,0-3.3c-0.3-1-0.8-1.8-1.5-2.5c-0.7-0.7-1.7-1.1-2.7-1.4
			c-1.1-0.2-2.1-0.2-3,0.1c-1,0.3-1.8,0.8-2.5,1.6s-1.2,1.7-1.5,2.9c-0.3,1.2-0.3,2.3,0,3.3c0.3,1,0.8,1.9,1.5,2.5
			C145.8,22.8,146.7,23.3,147.8,23.5z"/>
		<path d="M174.5,17.1c1.3,0.6,2.3,1.3,3,2.3s1.2,2,1.3,3.3c0.1,1.3-0.2,2.7-0.9,4.2l-4.1,9l-2.8-1.3l4-8.7c0.7-1.5,0.8-2.8,0.5-3.9
			c-0.4-1.1-1.3-2-2.6-2.6c-1-0.5-2-0.7-2.9-0.6c-0.9,0.1-1.8,0.4-2.5,1c-0.8,0.6-1.4,1.4-1.9,2.6l-3.7,8.1l-2.8-1.3l7.1-15.7
			l2.7,1.2l-1.9,4.2l0.1-1.3c1-0.8,2.1-1.2,3.5-1.3C171.7,16.2,173.1,16.5,174.5,17.1z"/>
		<path d="M182.7,42.1c-1.4-1-2.3-2.1-2.6-3.4c-0.3-1.3,0.1-2.7,1.1-4.1l8.8-13.1l2.6,1.7l-8.8,13c-0.5,0.8-0.7,1.5-0.6,2.2
			c0.1,0.7,0.5,1.3,1.2,1.7c0.8,0.5,1.6,0.8,2.5,0.7l-0.4,2.4c-0.6,0.1-1.3,0-1.9-0.2C183.9,42.8,183.3,42.5,182.7,42.1z M184,25.1
			l1.4-2.1l9.1,6.1l-1.4,2.1L184,25.1z"/>
		<path d="M191.8,49.3c-0.9-0.9-1.6-1.8-2-2.8c-0.4-1-0.5-1.9-0.4-2.8c0.1-0.9,0.5-1.7,1.2-2.4c0.6-0.7,1.4-1.2,2.2-1.4
			c0.8-0.3,1.8-0.2,2.8,0.1c1,0.4,2.2,1.1,3.5,2.3l4,3.7l-1.5,1.6l-3.9-3.6c-1.1-1.1-2.1-1.6-2.8-1.6s-1.4,0.3-1.9,0.8
			c-0.6,0.6-0.8,1.3-0.6,2.2s0.7,1.6,1.5,2.5c0.9,0.8,1.8,1.3,2.8,1.5s2,0.1,2.9-0.4l-1,2c-1,0.5-2.1,0.6-3.2,0.3
			C194.1,51.1,192.9,50.4,191.8,49.3z M196.1,53l2.5-2.7l0.3-0.6l4.2-4.5c0.9-1,1.3-2,1.2-3c-0.1-1.1-0.7-2.1-1.8-3.1
			c-0.7-0.7-1.6-1.2-2.5-1.7s-1.9-0.6-2.7-0.7l0.6-2.6c1.1,0.1,2.3,0.4,3.5,1c1.2,0.6,2.3,1.3,3.3,2.2c1.7,1.6,2.7,3.3,2.8,5
			c0.2,1.7-0.6,3.4-2.2,5.2l-7.1,7.6L196.1,53z"/>
		<path d="M205.8,64.8c-1.1-1.4-1.7-2.9-1.9-4.4c-0.2-1.6,0-3,0.5-4.5c0.6-1.4,1.6-2.6,2.9-3.7s2.8-1.6,4.3-1.8s3,0.1,4.4,0.7
			c1.4,0.6,2.7,1.7,3.7,3.1c0.9,1.2,1.5,2.5,1.8,3.9c0.2,1.3,0.1,2.7-0.5,3.9l-2.6-1c0.3-1,0.4-1.9,0.2-2.8s-0.5-1.7-1.1-2.4
			c-0.7-0.9-1.5-1.6-2.4-2c-0.9-0.4-1.9-0.5-2.9-0.4c-1,0.1-2,0.6-3,1.3c-1,0.7-1.7,1.6-2.1,2.6s-0.6,1.9-0.4,3c0.1,1,0.5,2,1.2,2.9
			c0.6,0.7,1.2,1.3,2.1,1.7s1.7,0.6,2.7,0.5l0.2,2.8c-1.4,0.2-2.7,0-3.9-0.6C207.8,66.9,206.7,66,205.8,64.8z"/>
		<path d="M214.3,78.4c-0.8-1.5-1.1-2.9-0.7-4.2c0.4-1.3,1.3-2.3,2.8-3.2l13.9-7.5l1.5,2.7L218,73.7c-0.8,0.4-1.3,1-1.6,1.6
			c-0.2,0.6-0.1,1.4,0.3,2.1c0.5,0.9,1.1,1.4,1.9,1.8l-1.5,1.9c-0.6-0.2-1.1-0.6-1.6-1.1C215,79.6,214.6,79,214.3,78.4z M223.3,64
			l2.3-1.2l5.2,9.6l-2.3,1.2L223.3,64z"/>
		<path d="M225.1,132.1c0.1-1.8,0.6-3.3,1.4-4.6c0.8-1.3,1.9-2.3,3.3-3c1.4-0.7,2.9-1,4.6-0.9c1.7,0.1,3.2,0.6,4.5,1.4
			c1.3,0.9,2.2,2,2.9,3.4c0.7,1.4,0.9,3,0.8,4.8c-0.1,1.6-0.5,2.9-1.2,4.1c-0.7,1.2-1.7,2.1-2.9,2.7l-1.4-2.5c0.9-0.5,1.5-1.2,2-1.9
			s0.7-1.6,0.8-2.6c0.1-1.1-0.1-2.1-0.6-3.1c-0.4-0.9-1.1-1.7-2-2.2c-0.9-0.6-1.9-0.9-3.1-1s-2.3,0.1-3.3,0.6s-1.7,1.1-2.2,2
			c-0.6,0.9-0.9,1.8-0.9,3c-0.1,0.9,0.1,1.8,0.4,2.6c0.3,0.8,0.9,1.6,1.7,2.2l-1.6,2.3c-1.1-0.7-2-1.7-2.6-3S225,133.6,225.1,132.1z
			"/>
		<path d="M222.3,149.2c0.4-1.7,1.2-3.1,2.2-4.2c1.1-1.1,2.3-1.9,3.8-2.3c1.5-0.4,3-0.4,4.7,0c1.7,0.4,3,1.2,4.1,2.2
			c1.1,1.1,1.8,2.4,2.2,3.8c0.4,1.5,0.4,3.1,0,4.7c-0.4,1.7-1.2,3.1-2.2,4.2c-1.1,1.1-2.3,1.9-3.8,2.3c-1.5,0.4-3,0.4-4.7,0
			s-3-1.2-4.1-2.2c-1.1-1.1-1.8-2.3-2.2-3.8C221.9,152.4,221.9,150.9,222.3,149.2z M225,149.9c-0.3,1.1-0.3,2.1,0,3.1
			c0.3,1,0.8,1.8,1.6,2.5c0.8,0.7,1.7,1.2,2.9,1.5c1.2,0.3,2.3,0.3,3.3,0.1c1-0.3,1.8-0.8,2.5-1.5c0.7-0.7,1.2-1.6,1.4-2.7
			s0.3-2.1,0-3s-0.8-1.8-1.5-2.5c-0.7-0.7-1.7-1.2-2.9-1.5c-1.2-0.3-2.3-0.3-3.3,0c-1,0.3-1.9,0.8-2.6,1.5
			C225.7,147.9,225.2,148.8,225,149.9z"/>
		<path d="M230.8,176.7c-0.6,1.3-1.4,2.3-2.3,3c-1,0.7-2.1,1.1-3.3,1.2c-1.3,0.1-2.6-0.3-4.2-1l-8.9-4.3l1.4-2.8l8.6,4.1
			c1.5,0.7,2.8,0.9,3.9,0.5s2-1.2,2.6-2.5c0.5-1,0.7-2,0.7-2.9c0-0.9-0.3-1.8-0.9-2.5c-0.6-0.8-1.4-1.4-2.6-2l-8-3.8l1.4-2.8
			l15.5,7.5l-1.3,2.7l-4.2-2l1.3,0.1c0.8,1,1.2,2.2,1.2,3.5C231.8,173.9,231.5,175.3,230.8,176.7z"/>
		<path d="M205.7,184.4c1-1.4,2.2-2.2,3.5-2.5c1.3-0.2,2.7,0.1,4.1,1.1l12.9,9.1l-1.8,2.5l-12.8-9c-0.8-0.5-1.5-0.8-2.2-0.7
			c-0.7,0.1-1.3,0.5-1.8,1.2c-0.6,0.8-0.8,1.6-0.7,2.5l-2.4-0.5c-0.1-0.6,0-1.3,0.2-1.9S205.3,184.9,205.7,184.4z M222.7,186.1
			l2.1,1.5l-6.3,9l-2.1-1.5L222.7,186.1z"/>
		<path d="M194.5,197.5l2.6,2.5l0.6,0.4l4.5,4.3c0.9,0.9,2,1.4,3,1.3c1.1,0,2.1-0.6,3.2-1.7c0.7-0.7,1.3-1.6,1.7-2.5
			c0.4-0.9,0.7-1.8,0.7-2.7l2.6,0.7c-0.1,1.1-0.5,2.3-1,3.4c-0.6,1.2-1.4,2.2-2.3,3.2c-1.6,1.7-3.3,2.6-5,2.7
			c-1.7,0.1-3.4-0.6-5.1-2.3l-7.5-7.2L194.5,197.5z M198.2,193.3c0.9-0.9,1.8-1.6,2.8-2c1-0.4,1.9-0.5,2.8-0.3
			c0.9,0.2,1.7,0.6,2.4,1.3c0.7,0.6,1.1,1.4,1.4,2.2c0.2,0.8,0.2,1.8-0.2,2.8c-0.4,1-1.2,2.2-2.3,3.4l-3.8,3.9l-1.6-1.6l3.7-3.8
			c1.1-1.1,1.6-2.1,1.6-2.8c0-0.8-0.3-1.4-0.8-1.9c-0.6-0.6-1.3-0.8-2.2-0.7s-1.7,0.6-2.5,1.5c-0.8,0.8-1.3,1.8-1.6,2.7
			c-0.2,1-0.1,2,0.3,2.9l-2-1c-0.4-1-0.5-2.1-0.2-3.2C196.4,195.6,197.1,194.5,198.2,193.3z"/>
		<path d="M182.5,207c1.4-1,2.9-1.6,4.5-1.8c1.6-0.2,3,0,4.4,0.6c1.4,0.6,2.6,1.6,3.6,3c1,1.4,1.6,2.8,1.7,4.4
			c0.1,1.5-0.1,3-0.8,4.4s-1.7,2.6-3.1,3.7c-1.3,0.9-2.6,1.5-3.9,1.7c-1.4,0.2-2.7,0-3.9-0.6l1-2.6c1,0.4,1.9,0.5,2.8,0.3
			s1.7-0.5,2.5-1c0.9-0.7,1.6-1.5,2-2.4c0.4-0.9,0.6-1.9,0.5-2.9c-0.1-1-0.5-2-1.2-3c-0.7-1-1.6-1.7-2.5-2.1c-1-0.4-1.9-0.6-2.9-0.5
			c-1,0.1-2,0.5-2.9,1.2c-0.8,0.5-1.3,1.2-1.8,2c-0.4,0.8-0.6,1.7-0.6,2.7l-2.8,0.2c-0.2-1.4,0.1-2.7,0.7-3.9S181.3,207.9,182.5,207
			z"/>
		<path d="M168.7,215.2c1.5-0.8,2.9-1,4.2-0.6c1.3,0.4,2.3,1.4,3.1,2.9l7.2,14l-2.8,1.4l-7.2-13.9c-0.4-0.8-1-1.4-1.6-1.6
			c-0.6-0.2-1.3-0.1-2.1,0.3c-0.9,0.4-1.5,1.1-1.8,1.8l-1.9-1.5c0.2-0.6,0.6-1.1,1.1-1.6C167.5,215.9,168.1,215.5,168.7,215.2z
			 M183,224.6l1.2,2.3l-9.8,5l-1.2-2.3L183,224.6z"/>
		<path d="M114.8,224.9c1.7,0.1,3.3,0.7,4.6,1.5c1.3,0.9,2.3,2,3,3.4c0.7,1.4,0.9,2.9,0.8,4.6c-0.1,1.7-0.7,3.2-1.5,4.4
			c-0.9,1.3-2,2.2-3.5,2.8c-1.4,0.6-3,0.9-4.8,0.7c-1.6-0.1-2.9-0.6-4.1-1.3c-1.2-0.7-2-1.7-2.6-3l2.5-1.3c0.5,0.9,1.1,1.6,1.9,2
			c0.8,0.5,1.6,0.7,2.6,0.8c1.1,0.1,2.1-0.1,3.1-0.5c0.9-0.4,1.7-1.1,2.3-1.9c0.6-0.9,0.9-1.9,1-3.1s-0.1-2.3-0.5-3.3
			c-0.4-0.9-1.1-1.7-1.9-2.3c-0.8-0.6-1.8-0.9-2.9-1c-0.9-0.1-1.8,0-2.7,0.4s-1.6,0.9-2.2,1.7l-2.2-1.7c0.8-1.1,1.8-2,3.1-2.5
			C111.9,225,113.3,224.8,114.8,224.9z"/>
		<path d="M97.8,221.8c1.6,0.5,3,1.2,4.1,2.3c1.1,1.1,1.9,2.4,2.3,3.9c0.4,1.5,0.4,3-0.1,4.7c-0.5,1.6-1.2,3-2.3,4.1
			c-1.1,1.1-2.4,1.8-3.9,2.2c-1.5,0.4-3.1,0.3-4.7-0.1c-1.6-0.5-3-1.2-4.1-2.3c-1.1-1.1-1.9-2.4-2.2-3.8c-0.4-1.5-0.4-3,0.1-4.7
			c0.5-1.6,1.2-3,2.3-4.1s2.4-1.8,3.9-2.2S96.1,221.3,97.8,221.8z M97,224.4c-1.1-0.3-2.1-0.3-3.1-0.1c-1,0.2-1.8,0.8-2.6,1.5
			c-0.7,0.8-1.2,1.7-1.6,2.9c-0.3,1.2-0.4,2.3-0.1,3.3c0.2,1,0.7,1.9,1.4,2.6s1.6,1.2,2.7,1.5c1.1,0.3,2.1,0.3,3,0.1
			c1-0.3,1.8-0.7,2.6-1.5c0.7-0.7,1.3-1.7,1.6-2.9c0.3-1.2,0.4-2.3,0.1-3.3s-0.7-1.9-1.4-2.6C99,225.2,98.1,224.7,97,224.4z"/>
		<path d="M70.1,229.7c-1.3-0.6-2.2-1.4-2.9-2.4S66,225.2,66,224s0.3-2.6,1.1-4.1l4.5-8.8l2.8,1.4l-4.3,8.5c-0.8,1.5-1,2.8-0.6,3.9
			c0.3,1.1,1.2,2,2.5,2.7c1,0.5,1.9,0.7,2.9,0.7c0.9,0,1.8-0.3,2.6-0.9c0.8-0.6,1.4-1.4,2-2.5l4-7.9l2.8,1.4l-7.8,15.4l-2.7-1.3
			l2.1-4.1l-0.1,1.3c-1,0.7-2.2,1.1-3.5,1.2C72.8,230.8,71.5,230.4,70.1,229.7z"/>
		<path d="M60.9,221.4l-1.5,2.1l-8.8-6.5l1.5-2.1L60.9,221.4z M63,204.5c1.4,1,2.2,2.2,2.4,3.5c0.2,1.3-0.2,2.7-1.2,4.1l-9.4,12.7
			l-2.5-1.8l9.3-12.6c0.6-0.7,0.8-1.5,0.7-2.1c-0.1-0.7-0.5-1.3-1.2-1.8c-0.8-0.6-1.6-0.8-2.4-0.8l0.5-2.4c0.6,0,1.3,0,1.9,0.3
			C61.8,203.7,62.4,204,63,204.5z"/>
		<path d="M50,192.9l-2.6,2.6l-0.4,0.6l-4.4,4.4c-0.9,0.9-1.4,1.9-1.4,3c0,1.1,0.6,2.1,1.7,3.2c0.7,0.7,1.5,1.3,2.5,1.8
			c0.9,0.5,1.8,0.7,2.7,0.8l-0.7,2.6c-1.1-0.1-2.3-0.5-3.4-1.1c-1.1-0.6-2.2-1.4-3.2-2.4c-1.7-1.7-2.5-3.4-2.6-5.1
			c-0.1-1.7,0.7-3.4,2.4-5.1l7.4-7.3L50,192.9z M54.1,196.8c0.9,0.9,1.5,1.9,1.9,2.8c0.4,1,0.5,1.9,0.3,2.8
			c-0.2,0.9-0.6,1.7-1.3,2.4c-0.7,0.7-1.4,1.1-2.3,1.3c-0.8,0.2-1.8,0.1-2.8-0.3c-1-0.4-2.2-1.2-3.4-2.4l-3.8-3.9l1.6-1.6l3.8,3.8
			c1.1,1.1,2,1.7,2.8,1.7c0.8,0,1.4-0.2,1.9-0.8c0.6-0.6,0.8-1.3,0.7-2.1c-0.1-0.8-0.6-1.7-1.4-2.5c-0.8-0.8-1.7-1.4-2.7-1.6
			s-2-0.2-3,0.3l1.1-1.9c1-0.4,2.1-0.5,3.2-0.2C51.9,195,53,195.7,54.1,196.8z"/>
		<path d="M40.8,180.8c1,1.4,1.6,2.9,1.7,4.5c0.2,1.6-0.1,3-0.7,4.4c-0.6,1.4-1.7,2.6-3.1,3.5s-2.9,1.5-4.4,1.6
			c-1.5,0.1-3-0.2-4.4-0.9c-1.4-0.7-2.6-1.8-3.6-3.2c-0.9-1.3-1.4-2.6-1.6-4c-0.2-1.4,0-2.7,0.6-3.9L28,184
			c-0.4,0.9-0.5,1.9-0.4,2.8c0.1,0.9,0.5,1.7,1,2.5c0.6,0.9,1.4,1.6,2.3,2.1c0.9,0.4,1.9,0.6,2.9,0.5c1-0.1,2.1-0.5,3.1-1.2
			c1-0.7,1.7-1.5,2.2-2.5c0.5-0.9,0.6-1.9,0.5-2.9c-0.1-1-0.5-2-1.1-2.9c-0.5-0.8-1.2-1.4-2-1.8c-0.8-0.4-1.7-0.7-2.7-0.6l-0.1-2.8
			c1.4-0.1,2.7,0.1,3.9,0.8C38.9,178.6,39.9,179.5,40.8,180.8z"/>
		<path d="M32.9,166.8c0.8,1.6,0.9,3,0.5,4.2c-0.4,1.3-1.4,2.3-3,3L16.3,181l-1.4-2.8l14.1-6.9c0.8-0.4,1.4-0.9,1.6-1.6
			c0.2-0.6,0.2-1.3-0.2-2.1c-0.4-0.9-1-1.5-1.8-1.8l1.6-1.9c0.6,0.2,1.1,0.6,1.6,1.1C32.2,165.6,32.6,166.2,32.9,166.8z M23.2,180.9
			l-2.3,1.1l-4.8-9.9l2.3-1.1L23.2,180.9z"/>
		<path d="M23.7,121c0,1.8-0.5,3.3-1.2,4.7c-0.8,1.4-1.9,2.4-3.2,3.2c-1.3,0.8-2.9,1.1-4.6,1.1c-1.7,0-3.2-0.5-4.5-1.3
			c-1.3-0.8-2.3-1.9-3-3.3c-0.7-1.4-1.1-3-1-4.7c0-1.6,0.4-2.9,1-4.2c0.6-1.2,1.6-2.1,2.8-2.8l1.5,2.4c-0.9,0.5-1.5,1.2-1.9,2
			c-0.4,0.8-0.6,1.7-0.7,2.6c0,1.1,0.2,2.1,0.7,3c0.5,0.9,1.2,1.6,2,2.2c0.9,0.5,1.9,0.8,3.2,0.9c1.2,0,2.3-0.2,3.2-0.7
			c0.9-0.5,1.6-1.2,2.2-2.1c0.5-0.9,0.8-1.9,0.8-3c0-0.9-0.2-1.8-0.5-2.6c-0.4-0.8-1-1.5-1.8-2.1l1.5-2.3c1.2,0.7,2.1,1.7,2.7,2.9
			C23.4,118,23.7,119.4,23.7,121z"/>
		<path d="M25.8,103.8c-0.3,1.7-1,3.1-2.1,4.3c-1,1.2-2.3,2-3.7,2.5c-1.5,0.5-3,0.6-4.7,0.2c-1.7-0.3-3.1-1-4.2-2.1
			c-1.1-1-1.9-2.3-2.4-3.7c-0.5-1.5-0.5-3-0.2-4.7c0.3-1.7,1-3.1,2-4.3c1-1.2,2.2-2,3.7-2.5c1.4-0.5,3-0.5,4.7-0.2
			c1.7,0.3,3.1,1,4.2,2.1c1.1,1,1.9,2.3,2.4,3.8C26.1,100.5,26.1,102.1,25.8,103.8z M23.1,103.2c0.2-1.1,0.2-2.1-0.1-3.1
			c-0.3-1-0.9-1.8-1.7-2.5c-0.8-0.7-1.8-1.1-3-1.4c-1.2-0.3-2.3-0.2-3.3,0.1c-1,0.3-1.8,0.8-2.5,1.6s-1.1,1.7-1.3,2.8
			c-0.2,1.1-0.2,2.1,0.1,3c0.3,0.9,0.9,1.8,1.6,2.5c0.8,0.7,1.8,1.2,3,1.4c1.2,0.2,2.3,0.2,3.3-0.1c1-0.3,1.8-0.9,2.5-1.6
			C22.4,105.2,22.9,104.3,23.1,103.2z"/>
		<path d="M16.1,76.6c0.6-1.3,1.3-2.3,2.2-3.1s2-1.2,3.3-1.3c1.3-0.1,2.7,0.2,4.2,0.8l9.1,3.9l-1.2,2.9L24.9,76
			c-1.5-0.7-2.8-0.8-3.9-0.4c-1.1,0.4-1.9,1.3-2.5,2.6c-0.4,1-0.6,2-0.5,2.9c0.1,0.9,0.4,1.8,1,2.5c0.6,0.7,1.5,1.4,2.6,1.9l8.1,3.5
			l-1.2,2.9l-15.8-6.8l1.2-2.7l4.3,1.8l-1.3,0c-0.8-1-1.3-2.1-1.4-3.4C15.3,79.4,15.5,78,16.1,76.6z"/>
		<path d="M40.9,68c-0.9,1.5-2.1,2.3-3.4,2.6c-1.3,0.3-2.7,0-4.1-1L20.2,61l1.7-2.6L35,66.9c0.8,0.5,1.5,0.7,2.2,0.6
			c0.7-0.1,1.2-0.5,1.7-1.3c0.5-0.8,0.7-1.6,0.6-2.5l2.4,0.4c0.1,0.6,0,1.3-0.2,1.9S41.3,67.4,40.9,68z M23.9,66.9l-2.2-1.4l6-9.2
			l2.2,1.4L23.9,66.9z"/>
		<path d="M51.6,54.3l-2.7-2.4l-0.6-0.3l-4.6-4.1c-1-0.9-2-1.3-3.1-1.2c-1.1,0.1-2.1,0.7-3.1,1.9c-0.7,0.8-1.2,1.6-1.6,2.6
			c-0.4,1-0.6,1.9-0.6,2.7l-2.6-0.6c0.1-1.1,0.4-2.3,0.9-3.5c0.5-1.2,1.3-2.3,2.2-3.3c1.6-1.8,3.2-2.7,4.9-2.9
			c1.7-0.2,3.4,0.5,5.2,2.1l7.8,6.9L51.6,54.3z M48,58.7c-0.9,1-1.8,1.6-2.7,2.1c-1,0.4-1.9,0.6-2.8,0.5c-0.9-0.1-1.7-0.5-2.5-1.2
			c-0.7-0.6-1.2-1.3-1.4-2.2c-0.3-0.8-0.2-1.8,0.1-2.8c0.3-1.1,1.1-2.2,2.2-3.5l3.6-4.1l1.7,1.5l-3.5,4c-1,1.2-1.5,2.1-1.5,2.9
			s0.3,1.4,0.9,1.9c0.6,0.6,1.4,0.8,2.2,0.6c0.8-0.2,1.6-0.7,2.4-1.6c0.8-0.9,1.3-1.8,1.5-2.8c0.2-1,0.1-2-0.4-2.9l2,1
			c0.5,1,0.6,2.1,0.4,3.2C49.7,56.3,49.1,57.5,48,58.7z"/>
		<path d="M63.2,44.4c-1.4,1.1-2.8,1.8-4.4,2c-1.5,0.3-3,0.1-4.5-0.5c-1.4-0.6-2.7-1.5-3.7-2.9c-1.1-1.3-1.7-2.8-1.9-4.3
			c-0.2-1.5,0-3,0.6-4.4c0.6-1.4,1.6-2.7,3-3.8c1.2-1,2.5-1.6,3.9-1.8c1.3-0.3,2.7-0.1,3.9,0.4l-0.9,2.7c-1-0.3-1.9-0.4-2.8-0.2
			c-0.9,0.2-1.7,0.6-2.4,1.1c-0.9,0.7-1.5,1.5-1.9,2.5c-0.4,0.9-0.5,1.9-0.4,3s0.6,2,1.4,3c0.8,1,1.6,1.7,2.6,2s2,0.5,3,0.4
			c1-0.2,2-0.6,2.8-1.3c0.7-0.6,1.3-1.3,1.7-2.1c0.4-0.8,0.5-1.7,0.5-2.7l2.8-0.3c0.2,1.4,0,2.7-0.5,3.9
			C65.3,42.3,64.4,43.4,63.2,44.4z"/>
		<path d="M62,26.9l-1.3-2.2l9.5-5.4l1.3,2.2L62,26.9z M76.7,35.7c-1.5,0.9-2.9,1.1-4.2,0.8c-1.3-0.3-2.4-1.3-3.2-2.8l-7.8-13.7
			l2.7-1.5L71.9,32c0.5,0.8,1,1.3,1.7,1.5c0.7,0.2,1.4,0.1,2.1-0.3c0.8-0.5,1.4-1.1,1.7-1.9l2,1.5c-0.2,0.6-0.6,1.1-1,1.6
			C77.8,34.9,77.3,35.3,76.7,35.7z"/>
	</g>
</g>
</svg>
