<?xml version="1.0" encoding="UTF-8"?>
<svg id="Layer_1" data-name="Layer 1" xmlns="http://www.w3.org/2000/svg" viewBox="0 0 254.8 254.81">
  <defs>
    <style>
      .cls-1 {
        fill: #231f20;
        font-family: MontserratRoman-Medium, Montserrat;
        font-size: 31px;
        font-variation-settings: 'wght' 500;
      }
    </style>
  </defs>
  <text class="cls-1" transform="translate(122.51 26.08) rotate(2.2)"><tspan x="0" y="0">c</tspan></text>
  <text class="cls-1" transform="translate(139.13 26.54) rotate(12.14)"><tspan x="0" y="0">o</tspan></text>
  <text class="cls-1" transform="translate(157.5 30.32) rotate(23.21)"><tspan x="0" y="0">n</tspan></text>
  <text class="cls-1" transform="translate(176.04 38.56) rotate(32.38)"><tspan x="0" y="0">t</tspan></text>
  <text class="cls-1" transform="translate(186.42 44.83) rotate(40.82)"><tspan x="0" y="0">a</tspan></text>
  <text class="cls-1" transform="translate(199.84 56.38) rotate(50.53)"><tspan x="0" y="0">c</tspan></text>
  <text class="cls-1" transform="translate(210.65 69.72) rotate(58.86)"><tspan x="0" y="0">t</tspan></text>
  <text class="cls-1" transform="translate(216.91 79.47) rotate(67.16)"><tspan x="0" y="0">e</tspan></text>
  <text class="cls-1" transform="translate(223.85 96.06) rotate(76.61)"><tspan x="0" y="0">z</tspan></text>
  <text class="cls-1" transform="translate(227.27 111.23) rotate(83.23)"><tspan x="0" y="0"> </tspan></text>
  <text class="cls-1" transform="translate(229.39 118.56) rotate(94.19)"><tspan x="0" y="0">m</tspan></text>
  <text class="cls-1" transform="translate(226.44 149.95) rotate(108.37)"><tspan x="0" y="0">o</tspan></text>
  <text class="cls-1" transform="translate(220.14 167.87) rotate(116.07)"><tspan x="0" y="0">i</tspan></text>
  <text class="cls-1" transform="translate(216.53 175.28) rotate(120.66)"><tspan x="0" y="0"> </tspan></text>
  <text class="cls-1" transform="translate(212.87 182.09) rotate(127.66)"><tspan x="0" y="0">c</tspan></text>
  <text class="cls-1" transform="translate(202.86 195.36) rotate(137.55)"><tspan x="0" y="0">o</tspan></text>
  <text class="cls-1" transform="translate(189.12 208.14) rotate(148.51)"><tspan x="0" y="0">n</tspan></text>
  <text class="cls-1" transform="translate(171.69 218.51) rotate(157.69)"><tspan x="0" y="0">t</tspan></text>
  <text class="cls-1" transform="translate(160.57 223.36) rotate(166.22)"><tspan x="0" y="0">a</tspan></text>
  <text class="cls-1" transform="translate(143.41 227.6) rotate(175.99)"><tspan x="0" y="0">c</tspan></text>
  <text class="cls-1" transform="translate(126.25 228.66) rotate(-175.77)"><tspan x="0" y="0">t</tspan></text>
  <text class="cls-1" transform="translate(114.69 228.13) rotate(-167.49)"><tspan x="0" y="0">e</tspan></text>
  <text class="cls-1" transform="translate(97.12 224.2) rotate(-158.04)"><tspan x="0" y="0">z</tspan></text>
  <text class="cls-1" transform="translate(82.76 218.2) rotate(-151.4)"><tspan x="0" y="0"> </tspan></text>
  <text class="cls-1" transform="translate(75.56 215.7) rotate(-140.34)"><tspan x="0" y="0">m</tspan></text>
  <text class="cls-1" transform="translate(51.7 195.08) rotate(-126.28)"><tspan x="0" y="0">o</tspan></text>
  <text class="cls-1" transform="translate(40.72 179.58) rotate(-118.64)"><tspan x="0" y="0">i</tspan></text>
  <text class="cls-1" transform="translate(36.77 172.35) rotate(-114.04)"><tspan x="0" y="0"> </tspan></text>
  <text class="cls-1" transform="translate(33.33 165.44) rotate(-106.99)"><tspan x="0" y="0">c</tspan></text>
  <text class="cls-1" transform="translate(28.3 149.61) rotate(-97)"><tspan x="0" y="0">o</tspan></text>
  <text class="cls-1" transform="translate(25.86 130.99) rotate(-86.11)"><tspan x="0" y="0">n</tspan></text>
  <text class="cls-1" transform="translate(27.5 110.76) rotate(-76.96)"><tspan x="0" y="0">t</tspan></text>
  <text class="cls-1" transform="translate(29.98 98.9) rotate(-68.44)"><tspan x="0" y="0">a</tspan></text>
  <text class="cls-1" transform="translate(36.45 82.43) rotate(-58.63)"><tspan x="0" y="0">c</tspan></text>
  <text class="cls-1" transform="translate(45.51 67.84) rotate(-50.31)"><tspan x="0" y="0">t</tspan></text>
  <text class="cls-1" transform="translate(53.43 58.42) rotate(-44.64)"><tspan x="0" y="0"> </tspan></text>
  <text class="cls-1" transform="translate(57.92 52.22) rotate(-33.59)"><tspan x="0" y="0">m</tspan></text>
  <text class="cls-1" transform="translate(84.54 35.33) rotate(-19.4)"><tspan x="0" y="0">o</tspan></text>
  <text class="cls-1" transform="translate(102.53 29.33) rotate(-11.72)"><tspan x="0" y="0">i</tspan></text>
  <text class="cls-1" transform="translate(110.6 27.65) rotate(-7.13)"><tspan x="0" y="0"> </tspan></text>
</svg>