<?xml version="1.0" encoding="utf-8"?>
<!-- Generator: Adobe Illustrator 26.5.0, SVG Export Plug-In . SVG Version: 6.00 Build 0)  -->
<svg version="1.1" id="Layer_1" xmlns="http://www.w3.org/2000/svg" xmlns:xlink="http://www.w3.org/1999/xlink" x="0px" y="0px"
	 viewBox="0 0 249 249" style="enable-background:new 0 0 249 249;" xml:space="preserve">
<g>
	<g>
		<path d="M130,23.8c-1.8-0.1-3.3-0.5-4.6-1.3c-1.3-0.8-2.4-1.9-3.1-3.2c-0.7-1.4-1-2.9-1-4.6c0.1-1.7,0.5-3.2,1.4-4.5
			c0.8-1.3,2-2.3,3.4-3c1.4-0.7,3-1,4.7-0.9c1.6,0.1,2.9,0.4,4.1,1.1c1.2,0.7,2.1,1.6,2.7,2.9l-2.4,1.4c-0.5-0.9-1.2-1.5-2-2
			c-0.8-0.4-1.7-0.7-2.6-0.7c-1.1,0-2.1,0.2-3,0.6c-0.9,0.5-1.6,1.1-2.2,2c-0.6,0.9-0.9,1.9-0.9,3.2c-0.1,1.2,0.2,2.3,0.6,3.2
			c0.5,0.9,1.2,1.7,2,2.2c0.9,0.5,1.9,0.8,3,0.9c0.9,0,1.8-0.1,2.6-0.5c0.8-0.4,1.5-1,2.1-1.8l2.3,1.6c-0.7,1.2-1.7,2-3,2.6
			C133,23.6,131.6,23.8,130,23.8z"/>
		<path d="M147.2,26.2c-1.7-0.4-3.1-1.1-4.2-2.1s-2-2.3-2.4-3.8c-0.5-1.5-0.5-3-0.1-4.7c0.4-1.7,1.1-3.1,2.2-4.2
			c1.1-1.1,2.3-1.9,3.8-2.3c1.5-0.4,3.1-0.5,4.7-0.1c1.7,0.4,3.1,1.1,4.2,2.1c1.2,1,2,2.3,2.4,3.7c0.5,1.5,0.5,3,0.1,4.7
			c-0.4,1.7-1.1,3.1-2.1,4.2s-2.3,1.9-3.8,2.3C150.4,26.5,148.8,26.6,147.2,26.2z M147.8,23.5c1.1,0.2,2.1,0.2,3.1-0.1
			s1.8-0.8,2.5-1.6c0.7-0.8,1.2-1.8,1.4-3c0.3-1.2,0.3-2.3,0-3.3c-0.3-1-0.8-1.8-1.5-2.5c-0.7-0.7-1.7-1.1-2.7-1.4
			c-1.1-0.2-2.1-0.2-3,0.1c-1,0.3-1.8,0.8-2.5,1.6s-1.2,1.7-1.5,2.9c-0.3,1.2-0.3,2.3,0,3.3c0.3,1,0.8,1.9,1.5,2.5
			C145.8,22.8,146.7,23.3,147.8,23.5z"/>
		<path d="M174.5,17.1c1.3,0.6,2.3,1.3,3,2.3s1.2,2,1.3,3.3c0.1,1.3-0.2,2.7-0.9,4.2l-4.1,9l-2.8-1.3l4-8.7c0.7-1.5,0.8-2.8,0.5-3.9
			c-0.4-1.1-1.3-2-2.6-2.6c-1-0.5-2-0.7-2.9-0.6c-0.9,0.1-1.8,0.4-2.5,1c-0.8,0.6-1.4,1.4-1.9,2.6l-3.7,8.1l-2.8-1.3l7.1-15.7
			l2.7,1.2l-1.9,4.2l0.1-1.3c1-0.8,2.1-1.2,3.5-1.3C171.7,16.2,173.1,16.5,174.5,17.1z"/>
		<path d="M182.7,42.1c-1.4-1-2.3-2.1-2.6-3.4c-0.3-1.3,0.1-2.7,1.1-4.1l8.8-13.1l2.6,1.7l-8.8,13c-0.5,0.8-0.7,1.5-0.6,2.2
			c0.1,0.7,0.5,1.3,1.2,1.7c0.8,0.5,1.6,0.8,2.5,0.7l-0.4,2.4c-0.6,0.1-1.3,0-1.9-0.2C183.9,42.8,183.3,42.5,182.7,42.1z M184,25.1
			l1.4-2.1l9.1,6.1l-1.4,2.1L184,25.1z"/>
		<path d="M191.8,49.3c-0.9-0.9-1.6-1.8-2-2.8c-0.4-1-0.5-1.9-0.4-2.8c0.1-0.9,0.5-1.7,1.2-2.4c0.6-0.7,1.4-1.2,2.2-1.4
			c0.8-0.3,1.8-0.2,2.8,0.1c1,0.4,2.2,1.1,3.5,2.3l4,3.7l-1.5,1.6l-3.9-3.6c-1.1-1.1-2.1-1.6-2.8-1.6s-1.4,0.3-1.9,0.8
			c-0.6,0.6-0.8,1.3-0.6,2.2s0.7,1.6,1.5,2.5c0.9,0.8,1.8,1.3,2.8,1.5s2,0.1,2.9-0.4l-1,2c-1,0.5-2.1,0.6-3.2,0.3
			C194.1,51.1,192.9,50.4,191.8,49.3z M196.1,53l2.5-2.7l0.3-0.6l4.2-4.5c0.9-1,1.3-2,1.2-3c-0.1-1.1-0.7-2.1-1.8-3.1
			c-0.7-0.7-1.6-1.2-2.5-1.7s-1.9-0.6-2.7-0.7l0.6-2.6c1.1,0.1,2.3,0.4,3.5,1c1.2,0.6,2.3,1.3,3.3,2.2c1.7,1.6,2.7,3.3,2.8,5
			c0.2,1.7-0.6,3.4-2.2,5.2l-7.1,7.6L196.1,53z"/>
		<path d="M205.8,64.8c-1.1-1.4-1.7-2.9-1.9-4.4c-0.2-1.6,0-3,0.5-4.5c0.6-1.4,1.6-2.6,2.9-3.7s2.8-1.6,4.3-1.8s3,0.1,4.4,0.7
			c1.4,0.6,2.7,1.7,3.7,3.1c0.9,1.2,1.5,2.5,1.8,3.9c0.2,1.3,0.1,2.7-0.5,3.9l-2.6-1c0.3-1,0.4-1.9,0.2-2.8s-0.5-1.7-1.1-2.4
			c-0.7-0.9-1.5-1.6-2.4-2c-0.9-0.4-1.9-0.5-2.9-0.4c-1,0.1-2,0.6-3,1.3c-1,0.7-1.7,1.6-2.1,2.6s-0.6,1.9-0.4,3c0.1,1,0.5,2,1.2,2.9
			c0.6,0.7,1.2,1.3,2.1,1.7s1.7,0.6,2.7,0.5l0.2,2.8c-1.4,0.2-2.7,0-3.9-0.6C207.8,66.9,206.7,66,205.8,64.8z"/>
		<path d="M214.3,78.4c-0.8-1.5-1.1-2.9-0.7-4.2c0.4-1.3,1.3-2.3,2.8-3.2l13.9-7.5l1.5,2.7L218,73.7c-0.8,0.4-1.3,1-1.6,1.6
			c-0.2,0.6-0.1,1.4,0.3,2.1c0.5,0.9,1.1,1.4,1.9,1.8l-1.5,1.9c-0.6-0.2-1.1-0.6-1.6-1.1C215,79.6,214.6,79,214.3,78.4z M223.3,64
			l2.3-1.2l5.2,9.6l-2.3,1.2L223.3,64z"/>
		<path d="M242.2,109.3c0.3,1.4,0.2,2.6-0.1,3.8c-0.3,1.1-1,2.1-2,2.9s-2.3,1.3-3.9,1.7l-9.7,1.9l-0.6-3.1l9.4-1.8
			c1.6-0.3,2.8-0.9,3.5-1.9c0.7-0.9,0.9-2.1,0.6-3.5c-0.2-1-0.6-1.9-1.2-2.6s-1.3-1.2-2.2-1.4c-0.9-0.3-2-0.3-3.2,0l-8.7,1.7
			l-0.6-3.1l9.4-1.8c1.6-0.3,2.8-0.9,3.5-1.8c0.7-0.9,0.9-2.1,0.6-3.5c-0.2-1-0.6-1.8-1.1-2.5c-0.6-0.7-1.3-1.2-2.2-1.4
			c-0.9-0.3-2-0.3-3.2,0l-8.7,1.7l-0.6-3.1l16.9-3.2l0.6,2.9l-4.5,0.9l1.1-0.7c1.2,0.3,2.2,1,3.1,2c0.8,1,1.4,2.2,1.7,3.7
			c0.3,1.6,0.2,3.1-0.4,4.4s-1.6,2.3-3.2,3l0.3-1.3c1.4,0.3,2.6,1,3.6,2.1C241.2,106.2,241.9,107.6,242.2,109.3z"/>
		<path d="M225.1,131.6c0.1-1.8,0.6-3.4,1.4-4.8c0.8-1.3,1.9-2.4,3.3-3c1.4-0.7,2.9-1,4.6-0.9c1.7,0.1,3.2,0.6,4.5,1.4
			c1.3,0.8,2.2,1.9,2.9,3.3c0.7,1.4,0.9,2.9,0.8,4.5c-0.1,1.7-0.6,3.1-1.4,4.3c-0.8,1.2-1.9,2.2-3.3,2.8c-1.4,0.6-2.9,0.9-4.7,0.8
			c-0.1,0-0.3,0-0.5,0c-0.2,0-0.3,0-0.5-0.1l0.9-14.6l2.2,0.1l-0.8,13l-0.7-1.3c1.1,0.1,2.1-0.1,3-0.5c0.9-0.4,1.6-1,2.1-1.8
			c0.5-0.8,0.8-1.8,0.9-2.9c0.1-1.1-0.1-2.1-0.5-2.9s-1.1-1.6-1.9-2.1c-0.8-0.5-1.8-0.8-3-0.9l-0.5,0c-1.1-0.1-2.2,0.1-3.1,0.6
			s-1.7,1.2-2.2,2.1c-0.6,0.9-0.9,2-1,3.2c-0.1,1,0.1,1.9,0.3,2.8c0.3,0.9,0.8,1.6,1.4,2.3l-2.1,1.6c-0.9-0.8-1.5-1.8-1.9-3
			C225.2,134.4,225,133.1,225.1,131.6z"/>
		<path d="M213,173c0.8-1.5,1.9-2.7,3.2-3.6c1.3-0.9,2.7-1.3,4.3-1.4c1.5-0.1,3.1,0.3,4.6,1.1c1.5,0.8,2.7,1.9,3.5,3.2
			s1.2,2.7,1.2,4.3c0,1.6-0.4,3.1-1.2,4.7c-0.7,1.4-1.7,2.5-2.8,3.2c-1.1,0.8-2.4,1.2-3.8,1.2l-0.2-2.8c1-0.1,1.9-0.4,2.6-0.9
			s1.3-1.2,1.8-2c0.5-1,0.8-2,0.8-3c0-1-0.3-2-0.9-2.8c-0.5-0.9-1.4-1.6-2.5-2.2c-1.1-0.6-2.2-0.9-3.2-0.8c-1,0-2,0.3-2.9,0.9
			c-0.9,0.5-1.6,1.3-2.1,2.3c-0.4,0.8-0.7,1.7-0.7,2.6c0,0.9,0.2,1.8,0.7,2.7l-2.4,1.4c-0.7-1.2-1.1-2.4-1.1-3.8
			C211.9,175.7,212.2,174.4,213,173z"/>
		<path d="M203.3,187.4c1.1-1.3,2.3-2.3,3.8-2.9c1.4-0.6,2.9-0.8,4.4-0.5c1.5,0.2,2.9,0.9,4.3,1.9c1.3,1.1,2.3,2.3,2.8,3.7
			c0.5,1.4,0.7,2.9,0.4,4.4c-0.2,1.5-0.9,3-2,4.3c-1.1,1.3-2.3,2.3-3.7,2.9c-1.4,0.6-2.9,0.8-4.4,0.6c-1.5-0.2-2.9-0.9-4.3-1.9
			c-1.3-1.1-2.3-2.3-2.8-3.7c-0.6-1.4-0.7-2.9-0.4-4.4C201.6,190.2,202.3,188.7,203.3,187.4z M205.5,189.1c-0.7,0.9-1.1,1.8-1.3,2.8
			c-0.2,1,0,2,0.4,2.9s1.1,1.8,2,2.6c1,0.8,2,1.2,3,1.4c1,0.2,2,0.1,2.9-0.3c0.9-0.4,1.7-1,2.4-1.9c0.7-0.9,1.1-1.8,1.3-2.8
			s0-2-0.3-2.9c-0.4-1-1-1.8-2-2.6c-0.9-0.8-1.9-1.2-3-1.4c-1-0.2-2-0.1-3,0.3C207,187.6,206.2,188.2,205.5,189.1z"/>
		<path d="M199.7,216c-1.1,0.9-2.2,1.5-3.4,1.8c-1.2,0.3-2.3,0.2-3.5-0.3c-1.2-0.5-2.3-1.3-3.4-2.6l-6.4-7.6l2.4-2l6.1,7.3
			c1.1,1.3,2.2,2,3.4,2.1c1.2,0.1,2.3-0.3,3.4-1.2c0.8-0.7,1.4-1.5,1.8-2.4c0.4-0.9,0.4-1.8,0.2-2.7c-0.2-0.9-0.7-1.9-1.5-2.8
			l-5.7-6.8l2.4-2l11.1,13.2l-2.3,1.9l-3-3.6l1.2,0.6c0.3,1.2,0.2,2.5-0.3,3.7C201.8,213.9,200.9,215,199.7,216z"/>
		<path d="M173.7,212.6c1.5-0.9,2.9-1.2,4.2-0.8c1.3,0.3,2.4,1.2,3.3,2.7l8,13.6l-2.7,1.6l-7.9-13.5c-0.5-0.8-1-1.3-1.7-1.5
			c-0.7-0.2-1.4-0.1-2.1,0.4c-0.8,0.5-1.4,1.1-1.7,1.9l-2-1.4c0.2-0.6,0.5-1.1,1-1.6S173.1,213,173.7,212.6z M188.5,221.1l1.3,2.2
			l-9.5,5.6l-1.3-2.2L188.5,221.1z"/>
		<path d="M158,219.9l1.3,3.4l0.4,0.6l2.3,5.8c0.5,1.2,1.2,2,2.2,2.4s2.2,0.3,3.6-0.3c0.9-0.4,1.8-0.9,2.6-1.6
			c0.8-0.7,1.4-1.4,1.8-2.2l2.1,1.7c-0.6,1-1.4,1.9-2.4,2.7s-2.2,1.5-3.4,2c-2.2,0.9-4.1,1-5.7,0.4c-1.6-0.6-2.8-2-3.7-4.2l-3.8-9.7
			L158,219.9z M163.2,217.7c1.2-0.5,2.3-0.7,3.4-0.6c1.1,0,2,0.3,2.7,0.9s1.3,1.2,1.7,2.1c0.3,0.9,0.4,1.7,0.3,2.6s-0.6,1.7-1.4,2.5
			c-0.8,0.8-1.9,1.5-3.5,2.1l-5.1,2l-0.8-2.1l5-2c1.4-0.6,2.3-1.2,2.6-1.9c0.3-0.7,0.3-1.4,0.1-2c-0.3-0.8-0.9-1.3-1.7-1.5
			c-0.8-0.2-1.8-0.1-2.9,0.3c-1.1,0.4-1.9,1-2.6,1.9s-0.9,1.7-0.9,2.8l-1.4-1.8c0-1.1,0.4-2.1,1.1-3
			C160.6,219,161.7,218.3,163.2,217.7z"/>
		<path d="M143.3,223.6c1.7-0.3,3.3-0.3,4.8,0.2c1.5,0.5,2.8,1.3,3.8,2.4c1,1.1,1.7,2.5,2,4.2c0.3,1.7,0.3,3.2-0.3,4.7
			c-0.5,1.4-1.4,2.7-2.6,3.7c-1.2,1-2.7,1.7-4.4,2c-1.5,0.3-3,0.3-4.3-0.1c-1.3-0.4-2.4-1.1-3.3-2.1l2-2c0.7,0.7,1.5,1.2,2.4,1.4
			c0.9,0.2,1.8,0.3,2.7,0.1c1.1-0.2,2-0.7,2.8-1.3c0.8-0.7,1.3-1.5,1.7-2.5c0.3-1,0.4-2.1,0.1-3.3s-0.7-2.2-1.4-3
			c-0.7-0.8-1.5-1.3-2.5-1.7c-1-0.3-2-0.4-3.1-0.1c-0.9,0.2-1.7,0.6-2.4,1.1c-0.7,0.6-1.3,1.3-1.7,2.2l-2.6-1
			c0.4-1.3,1.2-2.4,2.2-3.2C140.4,224.5,141.7,223.9,143.3,223.6z"/>
		<path d="M127.3,225.4c1.7-0.1,3.1,0.3,4.1,1.2c1,0.9,1.5,2.2,1.6,3.9l0.8,15.8l-3.1,0.1l-0.8-15.6c0-0.9-0.3-1.6-0.8-2.1
			c-0.5-0.5-1.2-0.7-2-0.7c-1,0-1.8,0.4-2.4,0.9l-1.1-2.2c0.5-0.4,1-0.8,1.7-1C125.9,225.5,126.6,225.4,127.3,225.4z M136.4,239.8
			l0.1,2.6l-11,0.5l-0.1-2.6L136.4,239.8z"/>
		<path d="M87.3,237.2c-1.3-0.4-2.5-0.9-3.3-1.7c-0.9-0.8-1.5-1.8-1.8-3s-0.2-2.6,0.2-4.3l2.5-9.6l3,0.8l-2.4,9.2
			c-0.4,1.6-0.4,2.9,0.2,3.9c0.5,1,1.5,1.7,2.9,2.1c1,0.3,1.9,0.3,2.8,0.1c0.9-0.2,1.6-0.7,2.2-1.4c0.6-0.7,1.1-1.7,1.4-2.9l2.2-8.6
			l3,0.8l-2.4,9.2c-0.4,1.6-0.4,2.9,0.2,3.9s1.5,1.7,2.9,2.1c1,0.3,1.9,0.3,2.8,0.1c0.9-0.2,1.6-0.7,2.2-1.4
			c0.6-0.7,1.1-1.7,1.4-2.9l2.2-8.6l3,0.8l-4.4,16.6l-2.9-0.8l1.2-4.4l0.2,1.3c-0.8,1-1.8,1.6-3.1,1.9c-1.2,0.3-2.6,0.3-4-0.1
			c-1.6-0.4-2.9-1.2-3.8-2.3c-0.9-1.1-1.4-2.5-1.3-4.2l1.1,0.8c-0.8,1.1-2,1.9-3.4,2.4C90.6,237.7,89,237.7,87.3,237.2z"/>
		<path d="M74.6,212.2c1.6,0.9,2.8,2,3.7,3.4c0.8,1.3,1.3,2.8,1.3,4.3c0,1.5-0.4,3-1.2,4.5c-0.8,1.5-1.9,2.6-3.2,3.4
			c-1.3,0.8-2.7,1.2-4.2,1.2c-1.5,0-3-0.4-4.4-1.2c-1.5-0.8-2.6-1.9-3.3-3.1c-0.8-1.3-1.1-2.7-1.1-4.2c0-1.5,0.5-3,1.3-4.6
			c0.1-0.1,0.1-0.2,0.2-0.4c0.1-0.1,0.2-0.3,0.3-0.4l12.8,7.2l-1.1,2l-11.4-6.4l1.5-0.1c-0.6,1-0.8,1.9-0.9,2.9c0,1,0.2,1.9,0.7,2.7
			c0.5,0.8,1.2,1.5,2.2,2.1c0.9,0.5,1.9,0.8,2.9,0.8c1,0,1.9-0.3,2.7-0.8c0.8-0.5,1.5-1.3,2.1-2.3l0.3-0.5c0.6-1,0.8-2,0.8-3.1
			c0-1-0.3-2-0.9-2.9c-0.6-0.9-1.4-1.7-2.5-2.3c-0.9-0.5-1.8-0.8-2.7-0.9c-0.9-0.1-1.8,0-2.7,0.3l-0.5-2.6c1.1-0.4,2.3-0.5,3.6-0.4
			C72.1,211.1,73.3,211.5,74.6,212.2z"/>
		<path d="M38,176.4c0.9,1.5,1.4,3,1.5,4.6c0.1,1.6-0.2,3-1,4.4c-0.7,1.4-1.8,2.5-3.3,3.4s-2.9,1.4-4.5,1.4c-1.5,0-3-0.3-4.3-1.1
			c-1.4-0.8-2.5-1.9-3.4-3.4c-0.8-1.3-1.3-2.7-1.4-4s0.2-2.7,0.8-3.9L25,179c-0.4,0.9-0.6,1.8-0.5,2.7c0.1,0.9,0.4,1.7,0.9,2.5
			c0.6,1,1.3,1.7,2.2,2.2c0.9,0.5,1.9,0.7,2.9,0.7c1,0,2.1-0.4,3.1-1s1.8-1.4,2.3-2.4c0.5-0.9,0.7-1.9,0.7-2.9c0-1-0.4-2-1-3
			c-0.5-0.8-1.1-1.4-1.9-1.9c-0.8-0.5-1.7-0.7-2.7-0.8l0-2.8c1.4-0.1,2.6,0.3,3.8,1C36.2,174.1,37.2,175.1,38,176.4z"/>
		<path d="M30.4,160.9c0.6,1.6,0.8,3.2,0.6,4.7c-0.2,1.5-0.8,2.9-1.8,4.1c-1,1.2-2.2,2.1-3.8,2.7c-1.6,0.6-3.1,0.8-4.6,0.5
			c-1.5-0.3-2.8-0.9-4-1.8c-1.2-1-2.1-2.3-2.7-3.9c-0.6-1.6-0.8-3.2-0.6-4.7s0.8-2.9,1.7-4.1c1-1.2,2.2-2.1,3.8-2.7
			c1.6-0.6,3.1-0.8,4.7-0.6c1.5,0.2,2.9,0.9,4.1,1.8C28.9,158,29.8,159.3,30.4,160.9z M27.8,161.8c-0.4-1-1-1.9-1.8-2.5
			c-0.8-0.6-1.7-1-2.7-1.2c-1-0.1-2.1,0-3.3,0.5c-1.2,0.4-2.1,1.1-2.7,1.9c-0.7,0.8-1.1,1.7-1.2,2.7c-0.1,1,0,2,0.4,3
			c0.4,1,1,1.9,1.8,2.5c0.8,0.6,1.7,1,2.7,1.2c1,0.2,2.1,0,3.3-0.4c1.1-0.4,2-1.1,2.7-1.9c0.7-0.8,1.1-1.7,1.2-2.7
			C28.4,163.9,28.2,162.9,27.8,161.8z"/>
		<path d="M7.5,143.3c-0.2-1.4-0.2-2.7,0.2-3.8s1-2.1,2-2.9c1-0.8,2.3-1.3,4-1.6l9.8-1.6l0.5,3.1l-9.4,1.6c-1.6,0.3-2.8,0.9-3.5,1.8
			c-0.7,0.9-0.9,2.1-0.7,3.6c0.2,1.1,0.6,2,1.1,2.7s1.3,1.3,2.2,1.6c0.9,0.3,2,0.3,3.2,0.1l8.7-1.5l0.5,3.1l-17,2.9l-0.5-2.9
			l4.6-0.8l-1.1,0.7c-1.2-0.4-2.2-1.1-3-2.1C8.3,146.1,7.8,144.8,7.5,143.3z"/>
		<path d="M23.6,122.6c0,1.7-0.4,3.1-1.3,4c-0.9,1-2.2,1.5-4,1.5l-15.8,0.3l-0.1-3.1l15.6-0.3c0.9,0,1.6-0.3,2.1-0.7
			c0.5-0.5,0.7-1.1,0.7-2c0-1-0.3-1.8-0.9-2.4l2.2-1c0.4,0.5,0.7,1,0.9,1.7S23.6,121.9,23.6,122.6z M8.9,131.3l-2.6,0l-0.2-11l2.6,0
			L8.9,131.3z"/>
		<path d="M25.2,105.3l-3.6-0.5l-0.7,0.1l-6.1-0.9c-1.3-0.2-2.4,0-3.2,0.7c-0.8,0.7-1.4,1.7-1.6,3.3c-0.2,1-0.1,2,0,3
			c0.2,1,0.5,1.9,1,2.6l-2.5,0.9c-0.6-1-1-2.1-1.1-3.4c-0.2-1.3-0.2-2.6,0-4c0.4-2.3,1.2-4,2.5-5.1c1.3-1.1,3.2-1.5,5.5-1.1
			l10.3,1.6L25.2,105.3z M24.5,110.9c-0.2,1.3-0.6,2.3-1.1,3.2c-0.6,0.9-1.3,1.5-2.1,1.9c-0.8,0.4-1.7,0.5-2.7,0.4
			c-0.9-0.1-1.7-0.5-2.4-1c-0.7-0.6-1.2-1.4-1.5-2.4s-0.3-2.4-0.1-4.1l0.8-5.4l2.2,0.3l-0.8,5.3c-0.2,1.5-0.1,2.6,0.3,3.2
			c0.4,0.6,1,1,1.7,1.1c0.8,0.1,1.6-0.1,2.2-0.7c0.6-0.6,1-1.5,1.2-2.6c0.2-1.2,0.1-2.2-0.3-3.2s-1-1.7-2-2.2l2.2-0.3
			c0.9,0.6,1.6,1.4,2.1,2.5S24.8,109.4,24.5,110.9z"/>
		<path d="M29.4,90.7c-0.6,1.7-1.4,3-2.6,4.1c-1.2,1.1-2.5,1.7-4,2c-1.5,0.3-3.1,0.2-4.7-0.4c-1.6-0.6-2.9-1.4-3.9-2.6
			c-1-1.2-1.6-2.5-1.9-4.1c-0.3-1.5-0.1-3.1,0.5-4.8c0.5-1.5,1.2-2.7,2.2-3.6c1-1,2.2-1.6,3.5-1.8l0.7,2.7c-1,0.3-1.8,0.7-2.4,1.3
			c-0.6,0.6-1.1,1.4-1.4,2.3C15,87,14.9,88,15.1,89c0.2,1,0.6,1.9,1.3,2.7c0.7,0.8,1.6,1.4,2.8,1.8c1.2,0.4,2.3,0.5,3.3,0.3
			c1-0.2,1.9-0.6,2.7-1.3c0.8-0.7,1.3-1.6,1.7-2.6c0.3-0.9,0.4-1.8,0.3-2.7c-0.1-0.9-0.5-1.7-1.1-2.6l2.2-1.8c0.9,1,1.5,2.2,1.7,3.6
			C30.1,87.8,29.9,89.2,29.4,90.7z"/>
		<path d="M36,76c-0.8,1.5-1.8,2.5-3.1,2.9c-1.3,0.4-2.7,0.2-4.2-0.6l-14-7.3l1.4-2.8L30,75.6c0.8,0.4,1.6,0.6,2.2,0.4
			s1.2-0.7,1.6-1.4c0.5-0.9,0.6-1.7,0.4-2.5l2.4,0.2c0.1,0.6,0.2,1.3,0,1.9C36.6,74.7,36.3,75.4,36,76z M19,76.6l-2.3-1.2l5.1-9.7
			l2.3,1.2L19,76.6z"/>
		<path d="M46,35.5c1-1,2-1.7,3.2-2c1.1-0.4,2.3-0.4,3.5,0c1.2,0.4,2.4,1.1,3.6,2.3l7,7L61,45.1l-6.7-6.8c-1.2-1.2-2.3-1.8-3.5-1.8
			s-2.2,0.4-3.2,1.4c-0.7,0.7-1.2,1.5-1.5,2.4c-0.2,0.9-0.2,1.7,0.1,2.6c0.3,0.9,0.9,1.8,1.8,2.7l6.3,6.3L52,54.1l-6.7-6.8
			c-1.2-1.2-2.3-1.8-3.5-1.8c-1.1-0.1-2.2,0.4-3.2,1.4c-0.7,0.7-1.2,1.5-1.4,2.4c-0.2,0.9-0.2,1.7,0.1,2.6c0.3,0.9,0.9,1.8,1.8,2.7
			l6.3,6.3L43,63.1L30.9,50.9l2.1-2.1l3.2,3.2L35,51.5c-0.4-1.2-0.4-2.4-0.1-3.6c0.4-1.2,1.1-2.4,2.1-3.4c1.2-1.2,2.5-1.9,3.9-2.1
			c1.4-0.3,2.8,0.1,4.3,1l-1.3,0.5c-0.6-1.3-0.7-2.7-0.3-4.2C44,38.1,44.7,36.8,46,35.5z"/>
		<path d="M74,37.2c-1.6,0.9-3.2,1.4-4.8,1.5c-1.6,0.1-3-0.3-4.4-1c-1.3-0.7-2.4-1.9-3.3-3.3c-0.9-1.5-1.3-3-1.3-4.5
			c0-1.5,0.3-2.9,1.1-4.2s1.8-2.4,3.3-3.2c1.4-0.8,2.9-1.3,4.4-1.3c1.5,0,2.9,0.4,4.2,1.1c1.3,0.8,2.4,1.9,3.3,3.5
			c0.1,0.1,0.1,0.2,0.2,0.4c0.1,0.2,0.1,0.3,0.2,0.4l-12.6,7.4L63,32l11.2-6.6l-0.7,1.3c-0.5-1-1.2-1.7-2.1-2.2
			c-0.8-0.5-1.8-0.8-2.7-0.8c-1,0-1.9,0.3-2.9,0.8c-0.9,0.5-1.6,1.2-2.1,2.1c-0.5,0.8-0.7,1.8-0.7,2.8c0,1,0.3,2,0.9,3l0.3,0.4
			c0.6,1,1.3,1.7,2.2,2.2c0.9,0.5,1.9,0.7,3,0.7c1.1-0.1,2.1-0.4,3.2-1c0.9-0.5,1.6-1.1,2.1-1.9c0.5-0.7,0.9-1.5,1.1-2.5l2.5,0.9
			c-0.2,1.2-0.7,2.3-1.4,3.3C76.2,35.6,75.2,36.4,74,37.2z"/>
	</g>
</g>
</svg>
