<?xml version="1.0" encoding="utf-8"?>
<!-- Generator: Adobe Illustrator 26.5.0, SVG Export Plug-In . SVG Version: 6.00 Build 0)  -->
<svg version="1.1" id="Layer_1" xmlns="http://www.w3.org/2000/svg" xmlns:xlink="http://www.w3.org/1999/xlink" x="0px" y="0px"
	 viewBox="0 0 249 249" style="enable-background:new 0 0 249 249;" xml:space="preserve">
<g>
	<g transform="translate(0.000000,2362.000000) scale(0.100000,-0.100000)">
		<path d="M256.6,23345.4C115.5,23204.3,0,23088.4,0,23087.7c0-0.6,115.6-1,257-1h257v-770.3v-770.3h257h257v1028v1028H770.6H513.3
			L256.6,23345.4z"/>
		<path d="M1282.9,23408.8v-193.2l201.6-201.6l201.5-201.5h200.2h200.1v-199.8v-199.8h-402h-402.1l201.2-201.2l201.2-201.2h402
			h402.1v603.3v603.1l-192.6,192.6l-192.5,192.5h-410.4h-410.2V23408.8z M2086.3,23015.8c0-109.5-0.1-199.1-0.4-199.1
			c-0.1,0-89.8,89.6-199.4,199.1l-199.1,199.1h199.5h199.4V23015.8z"/>
		<path d="M1301.1,21650.6c-8.7-54-16-99.6-16.4-101.3l-0.7-3.2h23.4h23.4l0.7,3.9c0.4,2.1,4,28.7,8,59.3c4,30.5,7.7,55.4,8.1,55.4
			c0.4,0,11.9-26.7,25.5-59.3l24.8-59.3h8.3h8.3l24.8,59.3c13.6,32.5,25.1,59.3,25.5,59.3c0.4,0,4.1-24.9,8.1-55.4
			c4-30.6,7.6-57.2,8-59.3l0.8-3.9h23.3h23.4l-0.7,3.2c-0.4,1.7-7.7,47.3-16.4,101.3l-15.6,98.1l-19.7-0.3l-19.7-0.4l-24.7-59
			c-13.5-32.5-24.8-59.4-25.2-59.7c-0.7-0.7-1.9,2.2-31.1,72.5l-19.3,46.2l-19.7,0.4l-19.7,0.3L1301.1,21650.6z"/>
		<path d="M1564,21647.4v-101.3h57.2h57.2v20v20h-33.8h-33.8v22v22h32.4h32.4v20v20h-32.4h-32.4v19.3v19.3h33.8h33.8v20v20h-57.2
			H1564V21647.4z"/>
		<path d="M1725.5,21650.6c-8.7-54-16-99.6-16.4-101.3l-0.7-3.2h23.4h23.4l0.7,3.9c0.4,2.1,4,28.7,8,59.3c4,30.5,7.7,55.4,8.1,55.4
			c0.4,0,11.9-26.7,25.5-59.3l24.8-59.3h8.3h8.3l24.8,59.3c13.6,32.5,25.1,59.3,25.5,59.3c0.4,0,4.1-24.9,8.1-55.4
			c4-30.6,7.6-57.2,8-59.3l0.8-3.9h23.3h23.4l-0.7,3.2c-0.4,1.7-7.7,47.3-16.4,101.3l-15.6,98.1l-19.7-0.3l-19.7-0.4l-24.7-59
			c-13.5-32.5-24.8-59.4-25.2-59.7c-0.7-0.7-1.9,2.2-31.1,72.5l-19.3,46.2l-19.7,0.4l-19.7,0.3L1725.5,21650.6z"/>
		<path d="M1989.8,21647.3v-101.4l48.6,0.6c52.2,0.7,54.6,1,70,8.7c8.7,4.4,19.7,16.8,23.4,26.6c4.1,10.5,4.5,31.8,0.8,42.6
			c-4.4,12.7-16.8,24-30.9,28.1l-5.8,1.7l5.5,4c6.3,4.5,13.1,14.5,15.2,22.5c0.8,3,1.2,11.4,1,18.6c-0.7,15.6-4.8,25.8-13.5,33.6
			c-14.7,13.4-27.6,16-77.2,16h-37.2V21647.3z M2064.2,21708.9c7.3-3.7,11-10.2,11-18.6c0-14.7-8.7-22.2-27.8-23.7l-10.7-1v23v22.9
			h11.4C2056.5,21711.5,2060.6,21710.8,2064.2,21708.9z M2075.9,21627.4c8.5-4.3,12-9,12.7-17.5c0.8-8.5-1.9-15.4-8-20.1
			c-6.6-5-13.6-6.5-29.8-6.5h-14.2v24.3v24.3l16.3-0.6C2066.7,21630.9,2070.1,21630.2,2075.9,21627.4z"/>
		<path d="M2171.7,21647.4v-101.3h57.2h57.2v20v20h-33.8h-33.8v22v22h32.4h32.4v20v20h-32.4h-32.4v19.3v19.3h33.8h33.8v20v20h-57.2
			h-57.2V21647.4z"/>
		<path d="M2326,21647.4v-101.3h23.4h23.4l0.3,39.3l0.4,39.4l26.9-39.3l26.9-39.3l28.8-0.1c22.7,0,28.4,0.4,27.4,1.8
			c-0.7,0.8-14.7,19.3-31,41.1l-29.8,39.3l10.3,4.5c20.3,9.2,31.3,24.9,33.1,46.7c2.1,27.4-8.7,48.9-29.8,60.1
			c-15.4,8.1-22.7,9.1-69.3,9.1H2326V21647.4z M2401.9,21709.4c11.4-4.1,16.4-11.6,16.4-24.8c0-18.5-12.5-28.2-36.1-28.2h-9.4v27.6
			v27.6h11.6C2391.2,21711.5,2398.4,21710.7,2401.9,21709.4z"/>
		<path d="M1749.8,21408.2c-36-5.2-63.5-25.1-79-57c-8.7-18.1-10.9-27.1-10.9-47.5c-0.1-20.1,1.9-29.6,10.1-46.2
			c13.4-27.1,37.3-46.3,68.3-54.7c15.6-4.1,48.8-4.3,64.2,0c37.1,10.1,65.2,38,75.1,74.7c3.7,13.6,3.4,41.5-0.6,55.5
			c-9.1,31.7-31.7,57.2-61,68.5C1796.9,21408.8,1771.5,21411.4,1749.8,21408.2z M1783.4,21365.1c30-6.5,49.3-30,49.3-60.4
			c0-32.5-20.7-57-52.2-61.9c-40.2-6.1-73.2,21.9-73.2,61.9c0,29.9,19.2,53.9,48.4,60.1
			C1767.1,21367.4,1772.1,21367.4,1783.4,21365.1z"/>
		<path d="M1916.8,21304.3V21203h23.4h23.4v42v42h30.3h30.3v20v20h-30.3h-30.3v19.3v19.3h33.1h33.1v20v20h-56.5h-56.5V21304.3z"/>
		<path d="M2191,21337.8l-66.8-67.5l-0.4-27.4l-0.3-27.4h67.5h67.5v-33.8v-33.8h33.8h33.8v61.3v61.3h-67.1h-67.2l66.6,66.6
			c36.5,36.5,66.4,66.8,66.4,67.5c0,0.6-15,1-33.3,0.8l-33.5-0.1L2191,21337.8z"/>
		<path d="M2355,21371.6v-34.2l33.8,33.8l33.8,33.8v-33.8v-33.8l-33.8-33.8l-33.8-33.8v-33.3v-33.5h33.8h33.8v33.5v33.3l33.8,33.8
			l33.8,33.8v34v34.2h-67.5H2355V21371.6z"/>
		<path d="M2456.2,21236.1l-33.1-33.1h33.5h33.3v33.1c0,18.2-0.1,33.1-0.4,33.1C2489.4,21269.2,2474.4,21254.3,2456.2,21236.1z"/>
	</g>
</g>
</svg>
